<mxfile host="app.diagrams.net" modified="2024-04-29T21:11:58.865Z" agent="Mozilla/5.0 (Windows NT 10.0; Win64; x64) AppleWebKit/537.36 (KHTML, like Gecko) Chrome/124.0.0.0 Safari/537.36" etag="mor1SqBr4H8A-MIi-ytF" version="24.3.1" type="github">
  <diagram name="PÃ¡gina-1" id="Crf4UIaSOBCs0qyFXyYC">
    <mxGraphModel dx="1195" dy="615" grid="1" gridSize="10" guides="1" tooltips="1" connect="1" arrows="1" fold="1" page="1" pageScale="1" pageWidth="827" pageHeight="1169" math="0" shadow="0">
      <root>
        <mxCell id="0" />
        <mxCell id="1" parent="0" />
        <mxCell id="AMnBbiNKuS76-W7Lhv19-1" value="Receber pdf" style="rounded=0;whiteSpace=wrap;html=1;" vertex="1" parent="1">
          <mxGeometry x="40" y="30" width="120" height="60" as="geometry" />
        </mxCell>
      </root>
    </mxGraphModel>
  </diagram>
</mxfile>
